<?xml version="1.0" standalone="no"?>
<!DOCTYPE svg PUBLIC "-//W3C//DTD SVG 20010904//EN"
 "http://www.w3.org/TR/2001/REC-SVG-20010904/DTD/svg10.dtd">
<svg version="1.0" xmlns="http://www.w3.org/2000/svg"
 width="1001.000000pt" height="1001.000000pt" viewBox="0 0 1001.000000 1001.000000"
 preserveAspectRatio="xMidYMid meet">
<metadata>
Created by potrace 1.14, written by Peter Selinger 2001-2017
</metadata>
<g transform="translate(0.000000,1001.000000) scale(0.100000,-0.100000)"
fill="#000000" stroke="none">
<path d="M6832 8654 c-203 -54 -318 -197 -349 -434 -11 -84 -1 -871 22 -1725
5 -168 9 -368 20 -945 7 -375 15 -721 20 -915 10 -375 20 -877 30 -1450 4
-214 7 -401 8 -414 1 -13 -6 -29 -15 -34 -14 -9 -30 2 -95 65 -43 42 -107 102
-142 134 -35 33 -78 72 -95 88 -35 32 -213 197 -325 301 -88 82 -160 149 -217
202 -111 102 -272 252 -308 287 -23 21 -85 79 -140 130 -102 94 -113 105 -336
314 -204 192 -262 247 -300 282 -19 18 -91 85 -160 150 -69 64 -141 133 -161
151 -20 19 -90 84 -155 145 -66 61 -135 126 -154 144 -52 47 -161 150 -281
264 -58 56 -139 132 -180 170 -41 38 -148 140 -239 227 -91 86 -188 178 -217
205 -91 87 -435 418 -477 460 -136 136 -275 203 -431 208 -256 9 -469 -130
-563 -364 -79 -199 -36 -398 123 -572 22 -24 110 -103 195 -176 85 -73 166
-143 180 -156 14 -12 108 -94 210 -182 162 -139 221 -191 264 -229 6 -5 40
-35 76 -65 36 -30 67 -57 70 -60 3 -3 34 -30 70 -60 36 -30 67 -57 70 -60 3
-3 52 -45 110 -95 58 -49 110 -94 116 -100 6 -5 38 -32 70 -60 31 -27 92 -80
133 -116 42 -36 89 -76 105 -90 16 -13 34 -28 40 -34 6 -5 58 -50 116 -100 58
-49 107 -92 110 -95 3 -3 52 -45 110 -95 58 -49 107 -92 110 -95 5 -5 108 -93
159 -135 13 -11 29 -25 35 -30 6 -6 108 -94 226 -195 118 -102 217 -187 220
-190 3 -3 55 -48 115 -100 61 -52 121 -104 135 -116 14 -12 66 -57 115 -99 50
-43 106 -92 125 -109 19 -17 94 -81 165 -141 72 -60 132 -112 135 -115 3 -3
37 -32 75 -65 39 -33 72 -62 75 -65 3 -3 32 -27 65 -55 33 -27 62 -52 65 -55
3 -3 48 -41 100 -85 52 -44 100 -85 105 -91 6 -5 39 -35 75 -65 36 -29 67 -56
70 -59 3 -3 34 -30 70 -60 36 -30 83 -71 105 -91 35 -31 165 -145 260 -227 17
-14 85 -76 153 -136 277 -249 455 -340 646 -332 97 4 109 7 172 39 93 47 182
164 202 264 4 21 7 1521 7 3333 l0 3295 -23 75 c-13 41 -39 101 -58 132 -64
105 -202 211 -344 263 -61 22 -220 28 -288 9z"/>
</g>
</svg>
